<svg width="804" height="833" viewBox="0 0 804 833" fill="none" xmlns="http://www.w3.org/2000/svg">
<rect width="804" height="833" fill="#222222"/>
<path d="M168 228C168 186.579 201.579 153 243 153H804V833H168V228Z" fill="black"/>
<path d="M328.441 421L362.108 323.405H385.164L418.831 421H399.443L392.5 400.04H354.772L347.698 421H328.441ZM359.881 384.32H387.391L371.147 335.719H376.125L359.881 384.32ZM449.867 422.572C444.889 422.572 440.566 421.742 436.898 420.083C433.23 418.424 430.391 416.066 428.383 413.009C426.374 409.865 425.37 406.241 425.37 402.136C425.37 398.206 426.243 394.713 427.99 391.656C429.736 388.512 432.444 385.892 436.112 383.796C439.78 381.7 444.408 380.215 449.998 379.342L473.316 375.543V388.643L453.273 392.049C449.867 392.66 447.334 393.752 445.675 395.324C444.015 396.896 443.186 398.948 443.186 401.481C443.186 403.926 444.103 405.891 445.937 407.376C447.858 408.773 450.216 409.472 453.011 409.472C456.591 409.472 459.735 408.73 462.443 407.245C465.237 405.673 467.377 403.533 468.862 400.826C470.434 398.119 471.22 395.149 471.22 391.918V373.578C471.22 370.521 469.997 367.989 467.552 365.98C465.194 363.884 462.05 362.836 458.12 362.836C454.452 362.836 451.177 363.84 448.295 365.849C445.5 367.77 443.448 370.347 442.138 373.578L428.121 366.766C429.518 363.011 431.701 359.779 434.671 357.072C437.727 354.277 441.308 352.094 445.413 350.522C449.517 348.95 453.971 348.164 458.775 348.164C464.626 348.164 469.779 349.256 474.233 351.439C478.687 353.535 482.136 356.504 484.582 360.347C487.114 364.102 488.381 368.513 488.381 373.578V421H472.137V408.817L475.805 408.555C473.971 411.612 471.787 414.188 469.255 416.284C466.722 418.293 463.84 419.865 460.609 421C457.377 422.048 453.797 422.572 449.867 422.572Z" fill="white"/>
</svg>
